<svg width="44" height="44" viewBox="0 0 44 44" fill="none" xmlns="http://www.w3.org/2000/svg">
  <path
    d="M0 2.47887C0 1.10983 1.10983 0 2.47887 0H41.5211C42.8902 0 44 1.10983 44 2.47887V41.5211C44 42.8902 42.8902 44 41.5211 44H2.47887C1.10983 44 0 42.8902 0 41.5211V2.47887Z"
    fill="#2E4751"
  />
  <path
    d="M24.868 44.0003H2.47887C1.10983 44.0003 0 42.8905 0 41.5214V19.1698L9.56388 9.60596L34.4131 34.4552L24.868 44.0003Z"
    fill="#0D5F6A"
  />
  <path
    d="M43.9999 19.1694V41.5211C43.9999 42.8901 42.8901 43.9999 41.521 43.9999H19.2529L19.2112 43.9582L43.9999 19.1694Z"
    fill="#98BCC1"
  />
  <path
    d="M5.26782 7.12673C5.26782 6.09995 6.10019 5.26758 7.12698 5.26758H36.8735C37.9002 5.26758 38.7326 6.09995 38.7326 7.12673V36.8732C38.7326 37.9 37.9002 38.7324 36.8735 38.7324H7.12698C6.1002 38.7324 5.26782 37.9 5.26782 36.8732V7.12673Z"
    fill="#1892A3"
  />
  <path
    d="M10.4471 12.3064C10.4471 11.2796 11.2794 10.4473 12.3062 10.4473H16.5557C17.5825 10.4473 18.4149 11.2796 18.4149 12.3064V31.6948C18.4149 32.7215 17.5825 33.5539 16.5557 33.5539H12.3062C11.2794 33.5539 10.4471 32.7215 10.4471 31.6948V12.3064Z"
    fill="white"
  />
  <path
    d="M22.3988 12.3064C22.3988 11.2796 23.2311 10.4473 24.2579 10.4473H31.6945C32.7213 10.4473 33.5537 11.2796 33.5537 12.3064V18.1495C33.5537 19.1763 32.7213 20.0086 31.6945 20.0086H22.3988V12.3064Z"
    fill="white"
  />
  <path
    d="M22.3988 31.6947C22.3988 32.7215 23.2311 33.5539 24.2579 33.5539H31.6945C32.7213 33.5539 33.5537 32.7215 33.5537 31.6948V25.8517C33.5537 24.8249 32.7213 23.9925 31.6945 23.9925H22.3988V31.6947Z"
    fill="white"
  />
</svg>
