<svg width="32" height="32" viewBox="0 0 32 32" fill="none" xmlns="http://www.w3.org/2000/svg">
  <rect x="2" width="30" height="30" rx="2" fill="#48BB78"/>
  <path fill-rule="evenodd" clip-rule="evenodd" d="M7 27.5556H8.5L8.5 17.5H16L16 27.5556H17.5L17.5 17.5H25.5V27.5556H27V8.00001L7 8V27.5556ZM25.5 9.50001H17.5V12H25.5V9.50001ZM25.5 13.5H17.5V16H25.5V13.5ZM16 13.5V16H8.5L8.5 13.5H16ZM16 9.50001V12H8.5V9.50001H16Z" fill="white"/>
  <rect y="19" width="27" height="13" rx="2" fill="#7ED0A1"/>
  <path d="M7.96642 24.4209L9.2698 22.0242H10.9169L8.89263 25.4712L10.9695 28.9756H9.30322L7.96642 26.5407L6.62961 28.9756H4.96338L7.0402 25.4712L5.0159 22.0242H6.66303L7.96642 24.4209Z" fill="white"/>
  <path d="M13.1274 27.825H16.1687V28.9756H11.6951V22.0242H13.1274V27.825Z" fill="white"/>
  <path d="M20.5992 27.1518C20.5992 26.8813 20.5037 26.6744 20.3128 26.5311C20.1218 26.3847 19.778 26.232 19.2815 26.0728C18.785 25.9105 18.3919 25.7513 18.1023 25.5954C17.3129 25.1689 16.9182 24.5944 16.9182 23.8719C16.9182 23.4963 17.0233 23.1621 17.2333 22.8692C17.4466 22.5732 17.7506 22.3425 18.1452 22.177C18.5431 22.0115 18.9887 21.9287 19.482 21.9287C19.9786 21.9287 20.421 22.0194 20.8093 22.2008C21.1976 22.3791 21.4984 22.6321 21.7116 22.96C21.9281 23.2878 22.0363 23.6602 22.0363 24.0771H20.604C20.604 23.7589 20.5037 23.5122 20.3032 23.3371C20.1027 23.1589 19.821 23.0698 19.4582 23.0698C19.1081 23.0698 18.8359 23.1446 18.6418 23.2942C18.4476 23.4406 18.3505 23.6347 18.3505 23.8766C18.3505 24.1026 18.4635 24.292 18.6895 24.4448C18.9187 24.5975 19.2545 24.7408 19.6969 24.8745C20.5117 25.1195 21.1053 25.4235 21.4777 25.7863C21.8501 26.1492 22.0363 26.6012 22.0363 27.1423C22.0363 27.7438 21.8087 28.2165 21.3536 28.5602C20.8984 28.9008 20.2857 29.0711 19.5155 29.0711C18.9807 29.0711 18.4938 28.974 18.0545 28.7798C17.6153 28.5825 17.2795 28.3135 17.0471 27.973C16.818 27.6324 16.7034 27.2377 16.7034 26.789H18.1405C18.1405 27.556 18.5988 27.9396 19.5155 27.9396C19.856 27.9396 20.1218 27.8711 20.3128 27.7343C20.5037 27.5942 20.5992 27.4001 20.5992 27.1518Z" fill="white"/>
</svg>
