<svg width="32" height="32" viewBox="0 0 32 32" fill="none" xmlns="http://www.w3.org/2000/svg">
  <path d="M2 32H30C31.1046 32 32 31.1046 32 30V8.82843C32 8.29799 31.7893 7.78929 31.4142 7.41421L24.5858 0.585786C24.2107 0.210713 23.702 0 23.1716 0H2C0.895431 0 0 0.895431 0 2V30C0 31.1046 0.895431 32 2 32Z" fill="#D0E1E7"/>
  <path d="M23 0H23.3938C23.9243 0 24.433 0.210713 24.808 0.585786L31.4142 7.19199C31.7893 7.56706 32 8.07577 32 8.60621V9H24.7778C23.7959 9 23 8.20406 23 7.22222V0Z" fill="#667980"/>
  <path d="M26 12H6V13.5H26V12Z" fill="#667980"/>
  <path d="M16 16H6V17.5H16V16Z" fill="#667980"/>
</svg>
