<svg width="32" height="32" viewBox="0 0 32 32" fill="none" xmlns="http://www.w3.org/2000/svg">
  <rect width="32" height="32" rx="2" fill="#FFD600"/>
  <path d="M8.5 14C9.88071 14 11 12.8807 11 11.5C11 10.1193 9.88071 9 8.5 9C7.11929 9 6 10.1193 6 11.5C6 12.8807 7.11929 14 8.5 14Z" fill="white"/>
  <path d="M25.1904 23H7.02782C6.63844 23 6.43729 22.5348 6.70399 22.2511L12.0607 16.553C12.2283 16.3748 12.5083 16.3654 12.6874 16.5321L14.6823 18.389C14.8914 18.5836 15.2272 18.5332 15.37 18.2859L18.6336 12.6346C18.8004 12.3456 19.2143 12.3367 19.3934 12.6182L25.5653 22.3169C25.7536 22.6128 25.5411 23 25.1904 23Z" fill="white"/>
</svg>
