<svg width="32" height="32" viewBox="0 0 32 32" fill="none" xmlns="http://www.w3.org/2000/svg">
  <rect x="2" width="30" height="30" rx="2" fill="#FF5151"/>
  <rect y="19" width="27" height="13" rx="2" fill="#FF9191"/>
  <path d="M6.33366 26.5266V28.9758H4.90137V22.0244H7.61317C8.13516 22.0244 8.5935 22.1199 8.98817 22.3109C9.38603 22.5018 9.69159 22.774 9.90484 23.1273C10.1181 23.4774 10.2247 23.8768 10.2247 24.3256C10.2247 25.0068 9.99078 25.5447 9.52289 25.9393C9.0582 26.3308 8.41366 26.5266 7.5893 26.5266H6.33366ZM6.33366 25.3664H7.61317C7.99193 25.3664 8.27998 25.2773 8.47732 25.0991C8.67784 24.9208 8.7781 24.6662 8.7781 24.3352C8.7781 23.9946 8.67784 23.7193 8.47732 23.5092C8.2768 23.2992 7.99989 23.1909 7.64659 23.1846H6.33366V25.3664Z" fill="white"/>
  <path d="M11.213 28.9758V22.0244H13.3519C13.963 22.0244 14.5089 22.1629 14.9895 22.4398C15.4733 22.7135 15.8504 23.105 16.121 23.6143C16.3915 24.1203 16.5268 24.6964 16.5268 25.3426V25.6624C16.5268 26.3086 16.3931 26.8831 16.1258 27.386C15.8616 27.8889 15.4876 28.2788 15.0038 28.5557C14.52 28.8326 13.9741 28.9726 13.3662 28.9758H11.213ZM12.6453 23.1846V27.8252H13.3376C13.8977 27.8252 14.3258 27.6422 14.6219 27.2762C14.9179 26.9101 15.069 26.3865 15.0754 25.7054V25.3378C15.0754 24.6312 14.929 24.0965 14.6362 23.7336C14.3434 23.3676 13.9153 23.1846 13.3519 23.1846H12.6453Z" fill="white"/>
  <path d="M21.7547 26.1351H19.0047V28.9758H17.5724V22.0244H22.0984V23.1846H19.0047V24.9797H21.7547V26.1351Z" fill="white"/>
  <path d="M7 8H27V9.5H7V8Z" fill="white"/>
  <path d="M7 12H27V13.5H7V12Z" fill="white"/>
  <path d="M27 16H7V17.5H27V16Z" fill="white"/>
</svg>
