<svg width="32" height="32" viewBox="0 0 32 32" fill="none" xmlns="http://www.w3.org/2000/svg">
  <rect x="2" width="30" height="30" rx="2" fill="#3B8CDF"/>
  <rect y="19" width="27" height="13" rx="2" fill="#83B8EF"/>
  <path d="M4.21143 28.9756V22.0242H6.35031C6.96143 22.0242 7.50729 22.1627 7.9879 22.4396C8.4717 22.7133 8.84887 23.1048 9.11941 23.614C9.38996 24.1201 9.52523 24.6962 9.52523 25.3423V25.6622C9.52523 26.3083 9.39155 26.8828 9.12419 27.3857C8.86001 27.8886 8.48602 28.2785 8.00222 28.5554C7.51843 28.8324 6.97257 28.9724 6.36464 28.9756H4.21143ZM5.64372 23.1844V27.825H6.33599C6.89618 27.825 7.32427 27.642 7.62028 27.2759C7.91629 26.9099 8.06747 26.3863 8.07384 25.7052V25.3376C8.07384 24.631 7.92743 24.0962 7.6346 23.7334C7.34178 23.3674 6.91368 23.1844 6.35031 23.1844H5.64372Z" fill="white"/>
  <path d="M16.2809 25.6574C16.2809 26.3418 16.1599 26.9417 15.918 27.4574C15.6761 27.973 15.3292 28.3708 14.8772 28.6509C14.4284 28.931 13.9128 29.0711 13.3303 29.0711C12.7542 29.0711 12.2402 28.9326 11.7882 28.6557C11.3363 28.3788 10.9862 27.9841 10.7379 27.4717C10.4896 26.9561 10.3639 26.364 10.3607 25.6956V25.3519C10.3607 24.6676 10.4833 24.066 10.7284 23.5472C10.9766 23.0252 11.3251 22.6258 11.7739 22.3488C12.2259 22.0688 12.7415 21.9287 13.3208 21.9287C13.9001 21.9287 14.4141 22.0688 14.8629 22.3488C15.3149 22.6258 15.6634 23.0252 15.9085 23.5472C16.1567 24.066 16.2809 24.666 16.2809 25.3471V25.6574ZM14.8295 25.3423C14.8295 24.6135 14.699 24.0596 14.438 23.6809C14.177 23.3021 13.8046 23.1127 13.3208 23.1127C12.8402 23.1127 12.4694 23.3005 12.2084 23.6761C11.9474 24.0485 11.8153 24.596 11.8121 25.3185V25.6574C11.8121 26.3672 11.9426 26.9179 12.2036 27.3094C12.4646 27.7008 12.8402 27.8966 13.3303 27.8966C13.811 27.8966 14.1802 27.7088 14.438 27.3332C14.6958 26.9545 14.8263 26.4038 14.8295 25.6813V25.3423Z" fill="white"/>
  <path d="M22.7787 26.66C22.7246 27.408 22.4477 27.9969 21.948 28.4265C21.4514 28.8562 20.7958 29.0711 19.981 29.0711C19.0898 29.0711 18.3879 28.7719 17.8755 28.1735C17.3662 27.5719 17.1116 26.7476 17.1116 25.7004V25.2755C17.1116 24.6071 17.2294 24.0183 17.4649 23.509C17.7004 22.9997 18.0362 22.6098 18.4723 22.3393C18.9115 22.0656 19.4208 21.9287 20.0001 21.9287C20.8021 21.9287 21.4483 22.1436 21.9384 22.5732C22.4286 23.0029 22.7119 23.6061 22.7882 24.3827H21.356C21.3209 23.9339 21.1952 23.6093 20.9788 23.4087C20.7655 23.205 20.4393 23.1032 20.0001 23.1032C19.5226 23.1032 19.1646 23.2751 18.9258 23.6188C18.6903 23.9594 18.5694 24.4893 18.563 25.2087V25.7338C18.563 26.485 18.676 27.034 18.902 27.381C19.1311 27.7279 19.4908 27.9014 19.981 27.9014C20.4234 27.9014 20.7528 27.8011 20.9692 27.6006C21.1889 27.3969 21.3146 27.0834 21.3464 26.66H22.7787Z" fill="white"/>
  <path d="M7 8H27V9.5H7V8Z" fill="white"/>
  <path d="M7 12H27V13.5H7V12Z" fill="white"/>
  <path d="M27 16H7V17.5H27V16Z" fill="white"/>
</svg>
