<svg width="24" height="24" viewBox="0 0 24 24" fill="none" xmlns="http://www.w3.org/2000/svg">
  <path d="M1.5 24H22.5C23.3284 24 24 23.3284 24 22.5V4.5C24 3.67157 23.3284 3 22.5 3H13.4099C12.9894 3 12.5882 2.82353 12.3041 2.51359L10.4459 0.486413C10.1618 0.17647 9.76061 0 9.34015 0H1.5C0.671573 0 0 0.671573 0 1.5V22.5C0 23.3284 0.671573 24 1.5 24Z" fill="#126B77"/>
  <path d="M1.5 24H22.5C23.3284 24 24 23.3284 24 22.5V7.5C24 6.67157 23.3284 6 22.5 6H1.5C0.671573 6 0 6.67157 0 7.5V22.5C0 23.3284 0.671573 24 1.5 24Z" fill="#1892A3"/>
</svg>
