<svg width="114" height="114" viewBox="0 0 114 114" fill="none" xmlns="http://www.w3.org/2000/svg">
  <path d="M0 6.42253C0 2.87547 2.87547 0 6.42254 0H107.577C111.125 0 114 2.87547 114 6.42254V107.577C114 111.125 111.125 114 107.577 114H6.42253C2.87547 114 0 111.125 0 107.577V6.42253Z" fill="#2E4751"/>
  <path d="M64.4308 114H6.42254C2.87547 114 0 111.125 0 107.578V49.6668L24.7791 24.8877L89.1613 89.2698L64.4308 114Z" fill="#0D5F6A"/>
  <path d="M114 49.666V107.577C114 111.124 111.124 114 107.577 114H49.8826L49.7744 113.891L114 49.666Z" fill="#98BCC1"/>
  <path d="M13.6484 18.4653C13.6484 15.805 15.805 13.6484 18.4653 13.6484H95.5358C98.1961 13.6484 100.353 15.805 100.353 18.4653V95.5358C100.353 98.1961 98.1961 100.353 95.5358 100.353H18.4653C15.805 100.353 13.6484 98.1961 13.6484 95.5358V18.4653Z" fill="#1892A3"/>
  <path d="M27.0674 31.8843C27.0674 29.224 29.224 27.0674 31.8843 27.0674H42.8943C45.5546 27.0674 47.7112 29.224 47.7112 31.8843V82.1177C47.7112 84.778 45.5546 86.9346 42.8943 86.9346H31.8843C29.224 86.9346 27.0674 84.778 27.0674 82.1177V31.8843Z" fill="white"/>
  <path d="M58.0332 31.8843C58.0332 29.224 60.1898 27.0674 62.8501 27.0674H82.1177C84.778 27.0674 86.9346 29.224 86.9346 31.8843V47.0231C86.9346 49.6834 84.778 51.84 82.1177 51.84H58.0332V31.8843Z" fill="white"/>
  <path d="M58.0332 82.1177C58.0332 84.778 60.1898 86.9346 62.8501 86.9346H82.1177C84.778 86.9346 86.9346 84.778 86.9346 82.1177V66.9789C86.9346 64.3186 84.778 62.1619 82.1177 62.1619H58.0332V82.1177Z" fill="white"/>
</svg>
