<svg width="40" height="40" viewBox="0 0 40 40" fill="none" xmlns="http://www.w3.org/2000/svg">
    <path d="M4.00146 8.70703L8.84546 17.3654V22.6467L4.00713 31.288L4.00146 8.70703Z" fill="#5B57A2"/>
    <path d="M22.6003 14.2145L27.1393 11.4325L36.4287 11.4238L22.6003 19.8952V14.2145Z" fill="#D90751"/>
    <path d="M22.5748 8.65566L22.6004 20.119L17.7451 17.1356V0L22.5751 8.65566H22.5748Z" fill="#FAB718"/>
    <path d="M36.4288 11.4237L27.1391 11.4323L22.5748 8.65566L17.7451 0L36.4284 11.4237H36.4288Z" fill="#ED6F26"/>
    <path d="M22.6004 31.336V25.7743L17.7451 22.8477L17.7478 40.0003L22.6004 31.336Z" fill="#63B22F"/>
    <path d="M27.1281 28.5793L8.84513 17.3654L4.00146 8.70703L36.4091 28.568L27.1278 28.5793H27.1281Z" fill="#1487C9"/>
    <path d="M17.7483 39.9997L22.6003 31.3354L27.1279 28.5787L36.4089 28.5674L17.7483 39.9997Z" fill="#017F36"/>
    <path d="M4.00708 31.2878L17.7847 22.8479L13.1527 20.0059L8.84541 22.6465L4.00708 31.2878Z" fill="#984995"/>
</svg>
